FILE "psxeg.bin" BINARY
  TRACK 01 MODE2/2352
    INDEX 01 00:00:00
  TRACK 02 AUDIO
    INDEX 00 00:15:53
    INDEX 01 00:17:53
  TRACK 03 AUDIO
    INDEX 00 04:38:34
    INDEX 01 04:40:34
